PathFileType	4	(X/Y/Z)	C:/Users/beibeiliu/ov580/test_trc/capture2\sequence.5_training_dense_right.trc
DataRate	CameraRate	NumFrames	NumMarkers	Units	OrigDataRate	OrigDataStartFrame	OrigNumFrames
120	120	14	19	mm	120	132	350
Frame#	Time	ThumbCMC			ThumbMCP			ThumbIP			ThumbTip			IndexMCP			IndexPIP			IndexTip			MiddleMCP			MiddlePIP			MiddleTip			RingMCP			RingPIP			RingTip			PinkyMCP			PinkyPIP			PinkyTip			BackHand1			BackHand2			BackHand3	
		X0	Y0	Z0	X1	Y1	Z1	X2	Y2	Z2	X3	Y3	Z3	X4	Y4	Z4	X5	Y5	Z5	X6	Y6	Z6	X7	Y7	Z7	X8	Y8	Z8	X9	Y9	Z9	X10	Y10	Z10	X11	Y11	Z11	X12	Y12	Z12	X13	Y13	Z13	X14	Y14	Z14	X15	Y15	Z15	X16	Y16	Z16	X17	Y17	Z17	X18	Y18	Z18	
131	1.09167	164.154	39.5117	-22.2401	149.636	60.2979	-42.4325	134.813	63.69	-71.3756	118.805	53.1816	-86.1644	165.238	15.1086	-86.5503	161.393	15.7094	-110.885	156.82	14.2581	-135.839	131.583	15.5201	-84.017	114.257	44.6322	-78.5323	124.228	41.7625	-43.7413	113.856	12.2992	-74.1068	104.02	39.9813	-63.0173	121.888	34.1969	-32.8685	103.264	6.16409	-63.3647	99.1932	32.3001	-49.0241	117.366	27.8936	-24.317	141.293	-14.8966	-33.2061	145.751	-16.4209	-5.6021	167.265	1.3052	-26.8847	
132	1.1	167.479	42.6388	-17.3304	151.983	61.5504	-42.3737	137.797	63.6598	-71.3457	120.304	52.0527	-84.2435	160.677	13.1637	-85.7875	158.122	16.4403	-110.781	157.476	17.5133	-139.895	134.979	17.9654	-85.6241	114.277	45.8816	-79.5088	122.31	45.0189	-45.7265	113.672	15.2218	-74.917	104.729	40.9888	-64.6482	123.885	36.7076	-34.6954	102.932	5.40471	-61.7968	100.539	34.6533	-49.1896	118.531	27.9783	-28.2572	138.813	-18.0306	-32.7084	141.854	-16.3382	-0.748044	169.035	0.559125	-21.5986	
133	1.10833	168.066	41.099	-17.0652	150.024	56.3276	-44.3868	138.646	60.4426	-66.0927	121.337	52.623	-84.0771	164.576	16.3298	-88.6813	159.95	21.8265	-112.591	152.049	20.308	-139.175	129.52	18.3898	-85.4119	118.112	45.9819	-83.0809	122.739	45.6617	-44.8848	112.51	14.834	-74.0561	102.45	41.3029	-61.6609	118.597	35.5164	-32.0425	99.201	9.34164	-63.1198	98.2441	35.9295	-46.5003	117.546	29.6478	-28.1671	136.581	-15.7979	-34.1808	144.794	-15.6096	-5.62577	167.957	1.09275	-23.7431	
134	1.11667	165.289	35.9747	-16.37	150.831	55.6511	-40.1865	140.752	64.0513	-69.5454	122.514	53.5115	-87.5217	161.482	14.7235	-87.4284	161.36	24.8164	-110.141	152.852	28.8915	-137.903	133.386	19.9576	-86.4137	116.97	47.6997	-80.3103	126.473	43.3581	-41.741	114.872	17.3603	-75.4689	105.386	43.2706	-63.0466	125.939	35.8115	-32.7115	102.252	8.41357	-62.0966	102.186	37.3132	-48.8477	119.445	29.8613	-27.0372	137.684	-17.0552	-32.2325	141.317	-15.5222	-0.236461	164.272	-3.70627	-21.1648	
135	1.125	167.727	35.6436	-18.6557	154.61	57.9598	-41.9554	142.799	63.3214	-69.6333	124.624	52.8906	-85.1599	164.511	17.113	-85.9352	157.019	24.8171	-110.39	149.156	31.855	-134.577	130.551	20.4588	-86.5788	117.989	47.9662	-80.0594	125.805	47.2482	-44.805	113.713	20.5841	-76.5174	108.365	45.6995	-60.1981	121.724	37.7362	-33.3007	102.218	11.5402	-61.9734	100.96	39.0057	-47.3571	119.339	29.2414	-24.3213	133.277	-16.173	-35.5499	140.929	-18.007	-1.14738	163.271	-3.00712	-25.3618	
136	1.13333	168.732	34.7369	-15.4665	154.331	52.9264	-41.1222	144.069	59.3036	-65.8033	127.252	52.4275	-84.7271	160.395	15.0069	-85.7273	160.618	29.6292	-108.545	147.177	40.7586	-133.467	132.127	19.8538	-85.3682	122.572	48.207	-82.6351	127.099	46.8646	-45.2974	113.33	17.044	-74.7315	107.749	44.4354	-62.6617	124.07	37.066	-31.906	102.735	12.2762	-63.6351	101.84	39.0198	-48.2572	122.044	29.5199	-26.6835	132.775	-17.9989	-35.7655	135.91	-18.0212	-0.447514	163.143	-6.55291	-24.5138	
137	1.14167	169.82	35.2798	-15.2368	156.485	54.0004	-41.8483	147.744	60.981	-69.0635	129.637	54.2235	-82.6403	161.789	20.0283	-88.9413	158.352	35.7163	-107.615	148.487	49.5159	-128.106	134.069	20.8787	-85.1217	124.249	52.3701	-78.4857	131.579	47.9551	-45.0153	114.069	20.2348	-77.2123	111.879	48.104	-61.1108	128.023	36.8922	-33.2613	104.039	16.3126	-64.8656	103.037	40.3457	-50.5143	119.451	26.5216	-24.2828	130.606	-18.9954	-33.6422	141.222	-18.5295	-3.99768	165.912	-4.27576	-25.0138	
138	1.15	171.188	34.177	-15.4028	159.923	54.7844	-39.9624	150.208	61.615	-67.4155	132.431	56.9739	-87.2384	161.065	21.1029	-88.1483	157.493	39.8937	-108.131	144.567	54.2171	-124.094	135.664	21.6792	-86.5429	125.773	51.6006	-77.4635	128.901	47.0634	-45.1835	117.195	18.4166	-74.8118	110.348	47.6774	-60.9777	129.036	37.9944	-34.3164	104.775	15.9778	-65.0571	105.175	41.1369	-51.7157	122.121	29.0318	-24.9907	134.549	-17.8929	-36.2743	137.589	-19.9017	-4.15908	164.58	-5.05799	-21.1723	
139	1.15833	168.778	30.3182	-13.133	158.673	49.5174	-39.6359	151.965	59.6583	-66.0226	135.331	53.9401	-82.5801	165.491	21.5033	-86.3678	158.427	40.6454	-106.541	147.061	55.6517	-120.431	137.875	20.1331	-85.5844	126.529	50.7534	-77.8808	130.802	45.6443	-44.4368	120.236	19.1481	-74.4231	112.114	46.47	-64.0572	128.58	35.5353	-33.2395	102.47	16.1576	-64.0821	104.894	41.082	-53.5882	123.01	29.897	-25.8962	134.009	-16.9963	-34.9663	137.679	-20.7157	-2.34273	163.303	-7.85684	-20.8493	
140	1.16667	170.14	28.7824	-14.8087	163.364	53.194	-38.2078	154.099	59.6271	-61.6785	137.54	53.7252	-83.2115	166.087	18.9676	-82.9006	156.82	37.9439	-106.812	149.497	57.0204	-122.15	139.703	18.0384	-82.9572	129.133	50.805	-78.8511	131.468	45.2016	-42.9503	116.235	19.1167	-75.5766	115.515	47.6781	-63.679	127.644	34.5832	-31.8169	104.659	12.8522	-61.7689	105.458	41.1408	-53.9632	125.9	29.0391	-25.9201	129.42	-17.4553	-30.474	136.424	-18.9086	-3.22879	166.463	-7.14779	-20.8246	
141	1.175	173.9	30.9859	-11.6755	161.801	51.0475	-39.4263	155.485	60.2075	-65.481	136.703	54.312	-80.9542	168.43	19.0246	-86.4522	159.423	32.5999	-106.713	149.498	50.8957	-124.059	137.243	18.3281	-82.2747	131.459	50.6044	-78.9823	134.243	46.0118	-43.1662	121.661	22.5722	-75.6831	115.621	47.9095	-60.2319	129.575	38.876	-33.6155	102.782	13.9158	-61.8283	107.647	42.2119	-49.4351	121.371	30.1708	-24.7542	134.347	-17.0256	-34.0376	135.323	-21.2472	-0.452615	162.26	-9.3303	-20.7968	
142	1.18333	174.363	29.9825	-16.9887	165.72	53.822	-38.6657	155.211	60.4716	-65.5346	136.713	55.5836	-79.67	167.714	13.8665	-85.9334	165.808	28.1948	-107.685	158.219	42.4563	-128.992	138.903	20.4997	-84.464	128.926	48.614	-79.0146	137.617	41.5914	-40.4552	120.109	23.7109	-76.4401	118.627	47.973	-64.1043	131.71	34.8625	-30.7651	105.577	16.5708	-63.2494	109.237	42.5122	-51.9273	122.691	30.2518	-21.5353	134.04	-16.7432	-30.6264	134.203	-22.0839	-4.75128	166.808	-10.1946	-22.2502	
143	1.19167	172.904	27.4285	-17.1241	165.95	52.8151	-36.9447	155.277	61.8011	-65.5367	134.805	53.9224	-82.782	170.947	11.0057	-83.0986	170.241	23.499	-111.35	161.647	31.7448	-133.653	140.645	18.5871	-83.1928	130.517	49.1929	-78.4434	140.033	42.772	-40.7406	122.695	19.1003	-74.0068	118.164	48.9585	-57.4041	131.816	37.4316	-31.0439	106.2	14.5837	-62.4063	108.126	41.9052	-50.0437	128.136	31.5605	-24.6753	135.48	-18.7767	-36.273	137.692	-19.5091	0.370533	164.651	-8.63095	-22.1054	
144	1.2	174.013	27.6572	-11.1398	166.516	53.7106	-37.2245	155.589	59.6453	-62.6278	137.687	56.5126	-81.1625	172.918	9.00057	-85.7998	170.283	16.2236	-111.337	171.584	21.9439	-132.195	145.091	18.7439	-81.795	133.687	49.5664	-76.6298	140.215	44.8976	-41.9034	123.166	22.0828	-75.348	118.347	47.1311	-61.8385	132.018	36.2647	-28.9008	106.146	16.4357	-63.6536	113.19	43.4976	-47.8272	126.837	33.1101	-25.4161	134.145	-16.7691	-35.8332	138.617	-20.4049	0.769397	166.018	-11.6537	-22.6441	
